# xmcd
# 
# Track frame offsets:
#     150
#     15101
#     29445
#     39697
#     49763
#     61213
#     74414
#     88486
#     100602
#     113336
#     126340
#     139285
#     153242
#     166015
#     177990
#     191544
#     204245
#     215772
#     226527
#     240227
# 
# Disc length: 3363
# 
# Revision: 1
# Processed by: cddbd v1.5.2PL0 Copyright (c) Steve Scherf et al.
# Submitted via: fre:ac v1.0.27
# 
DISCID=020d2114
DTITLE=Various Artist - 100 Hits - Blues [CD1]
DYEAR=1955
DGENRE=Blues
TTITLE0=Roosevelt Sykes - Hangover
TTITLE1=Elmore James - Dust My Blues
TTITLE2=Little Willie John - Need Your Love So Bad
TTITLE3=Jimmy Reed - Ain't That Loving You Baby
TTITLE4=Smiley Lewis - I Hear You Knocking
TTITLE5=Muddy Waters - Mannish Boy
TTITLE6=Howlin' Wolf - Smokestack Lightning
TTITLE7=Little Walter - My Babe
TTITLE8=Sonny Boy Williamson - Keep It To Yourself
TTITLE9=Big Joe Turner - Corrine, Corrina
TTITLE10=Muddy Waters - Forty Days And Forty Nights
TTITLE11=Otis Rush - I Can't Quit You Baby
TTITLE12=Howlin' Wolf - I Asked For Water (She Gave Me Gasoline)
TTITLE13=Sonny Boy Williamson - From The Bottom
TTITLE14=Champion Jack Dupree - Walking The Blues
TTITLE15=Howlin' Wolf - Forty Four
TTITLE16=Sonny Boy Williamson - Don't Start Me Talkin'
TTITLE17=Little Walter - Who
TTITLE18=Screamin' Jay Hawkins - (She Put The) Whamee On Me
TTITLE19=Bobby 'Blue' Bland - It's My Life, Baby
EXTD=
EXTT0=
EXTT1=
EXTT2=
EXTT3=
EXTT4=
EXTT5=
EXTT6=
EXTT7=
EXTT8=
EXTT9=
EXTT10=
EXTT11=
EXTT12=
EXTT13=
EXTT14=
EXTT15=
EXTT16=
EXTT17=
EXTT18=
EXTT19=
PLAYORDER=
